<svg width="960" height="960" viewBox="0 0 960 960" fill="none" xmlns="http://www.w3.org/2000/svg">
<g clip-path="url(#clip0_46_99)">
<g clip-path="url(#clip1_46_99)">
<path fill-rule="evenodd" clip-rule="evenodd" d="M583.493 401.514C573.809 385.02 557.478 371.841 539.271 363.087C528.349 357.801 516.716 354.134 504.736 352.199C486.064 349.295 465.254 357.063 447.609 368.584C437.174 375.348 427.723 383.522 419.525 392.873C406.753 407.756 398.138 425.747 394.551 445.028C392.383 456.561 392.253 468.385 394.167 479.962C394.766 483.491 395.571 486.981 396.579 490.415C403.251 513.28 418.662 533.651 439.17 545.529C442.482 547.452 445.924 549.141 449.471 550.584C461.769 555.471 474.965 557.693 488.186 557.105C499.647 556.66 510.972 554.455 521.763 550.57C550.655 540.214 575.561 518.244 587.836 490.114C600.111 461.984 599.042 427.982 583.493 401.514ZM586.326 454.053C587.896 426.316 573.653 398.261 550.332 383.16L548.098 386.61C570.18 400.908 583.709 427.558 582.222 453.821L586.326 454.053Z" fill="url(#paint0_linear_46_99)"/>
<path d="M827.951 348.4C833.051 348.318 833.746 352.921 832.225 359.346C830.992 364.62 828.252 371.114 825.238 377.265C820.566 386.786 815.196 395.472 813.538 397.527C811.497 400.048 809.238 402.555 806.277 403.87C803.316 405.185 799.468 405.048 797.194 402.733C794.481 399.938 794.988 395.404 795.988 391.633C796.139 391.085 796.288 390.523 796.454 389.975C798.874 381.68 802.702 373.862 807.77 366.864C808.003 366.549 808.249 366.193 808.523 365.823C811.4 361.864 816.551 354.959 821.634 351.137C823.814 349.5 825.978 348.428 827.951 348.4Z" fill="url(#paint1_linear_46_99)"/>
<path d="M660.226 177.881C664.856 174.634 669.747 171.291 675.364 170.593C681.008 169.893 687.543 172.812 688.872 178.347C689.735 181.923 688.297 185.647 686.502 188.855C681.474 197.91 673.57 205.144 664.761 210.583C655.952 216.022 646.212 219.817 636.403 223.159L634.965 223.459C631.065 204.403 627.184 185.259 626.142 165.852C625.909 161.77 625.827 157.577 627.169 153.714C628.511 149.851 631.526 146.33 635.526 145.494C640.965 144.371 646.116 148.357 649.609 152.673C655.457 159.905 659.138 168.644 660.226 177.881V177.881Z" fill="url(#paint2_linear_46_99)"/>
<path d="M602.346 90.1898C605.565 93.2718 605.922 98.2998 605.47 102.753C604.35 113.292 599.929 123.207 592.839 131.084L592.154 130.632C583.948 121.974 575.732 113.32 567.508 104.671C564.891 101.904 562.042 98.3008 563.247 94.6708C563.671 93.6006 564.355 92.6532 565.238 91.9141C566.121 91.175 567.174 90.6676 568.302 90.4378C570.566 90.0108 572.898 90.0997 575.124 90.6978C579.481 91.6598 583.649 93.3404 587.455 95.6708L587.728 95.6848C587.868 94.0571 588.466 92.5023 589.452 91.2003C590.439 89.8983 591.775 88.9023 593.304 88.3275C594.833 87.7528 596.494 87.6227 598.094 87.9525C599.694 88.2822 601.168 89.0582 602.346 90.1908V90.1898Z" fill="#171717"/>
<path d="M159.957 479.862C162.204 484.657 162.738 489.452 158.573 492.712C156.273 494.512 153.34 494.137 150.257 492.612C143.174 489.105 135.257 479.501 132.157 476.035C127.513 470.87 123.197 464.935 122.28 458.047C121.773 454.225 122.951 449.54 126.609 448.32C129.842 447.251 133.185 449.443 135.801 451.635C136.335 452.087 136.87 452.535 137.401 453.005C141.766 456.807 145.829 460.944 149.553 465.376C152.134 468.437 157.272 474.149 159.957 479.862Z" fill="#171717"/>
<path d="M143.079 280.463C131.297 287.313 115.789 274.75 110.556 264.53C104.61 252.93 105.256 238.61 110.57 226.692C112.67 222.02 115.516 217.554 119.612 214.486C123.708 211.418 129.188 209.897 134.079 211.386C141.915 213.786 145.71 222.565 147.669 230.524C150.656 242.717 156.779 269.524 145.148 279.034C144.499 279.568 143.807 280.046 143.079 280.463V280.463Z" fill="url(#paint3_linear_46_99)"/>
<path d="M447.608 368.58C437.173 375.344 427.722 383.518 419.524 392.869C406.752 407.751 398.137 425.743 394.55 445.024C392.382 456.557 392.252 468.38 394.166 479.958C394.765 483.487 395.57 486.977 396.577 490.411C403.249 513.276 418.661 533.647 439.169 545.525C442.481 547.447 445.923 549.136 449.469 550.58C461.768 555.467 474.963 557.689 488.184 557.101C499.645 556.655 510.97 554.451 521.762 550.566C550.655 540.209 575.562 518.249 587.835 490.11C600.108 461.971 599.041 427.982 583.492 401.51C573.806 385.016 557.476 371.837 539.27 363.083C528.348 357.799 516.714 354.132 504.735 352.2C486.063 349.291 465.253 357.059 447.608 368.58Z" stroke="#171717" stroke-width="4.11" stroke-linecap="round" stroke-linejoin="round"/>
<path d="M539.245 363.114L539.272 363.087C553.297 349.388 563.964 332.63 570.439 314.125C573.684 304.892 575.836 295.31 576.85 285.575C579.782 256.121 572.345 226.566 555.821 202.007C549.368 192.486 540.299 183.184 528.821 182.581C520.93 182.17 513.477 185.981 506.806 190.212C478.235 208.482 456.626 235.817 445.445 267.834C442.657 275.898 440.58 284.191 439.239 292.617C435.206 317.489 437.448 342.974 445.76 366.759" stroke="#171717" stroke-width="4.11" stroke-linecap="round" stroke-linejoin="round"/>
<path d="M437.95 292.41C437.265 277.751 429.977 263.86 419.538 253.558C409.099 243.256 395.728 236.296 381.768 231.748C367.808 227.2 351.793 225.131 338.902 232.214C330.148 237.036 323.983 245.475 319.102 254.202C302.58 283.752 298.169 319.755 306.581 352.502C307.799 357.27 309.295 361.964 311.061 366.558C318.158 384.66 329.09 401.011 343.107 414.486C357.124 427.961 373.893 438.241 392.261 444.619" stroke="#171717" stroke-width="4.11" stroke-linecap="round" stroke-linejoin="round"/>
<path d="M304.844 352.961C285.486 348.495 265.759 344.015 246.004 345.782C226.249 347.549 206.097 356.591 195.439 373.866C185.139 390.58 185.37 412.666 192.754 430.939C200.138 449.212 213.865 464.078 229.099 476.107C242.554 486.795 257.522 495.424 273.513 501.712C285.41 506.375 297.862 509.474 310.557 510.932C340.135 514.22 371 507.603 395.796 490.632" stroke="#171717" stroke-width="4.11" stroke-linecap="round" stroke-linejoin="round"/>
<path d="M273.582 501.658C273.556 501.672 273.532 501.691 273.513 501.713C244.634 523.118 223.001 552.85 211.522 586.913C208.015 597.421 205.837 610.024 212.7 618.737C216.988 624.176 223.906 626.779 230.564 628.724C269.44 640.013 310.957 638.135 348.655 623.381C348.943 623.271 349.23 623.162 349.504 623.038V623.024C386.746 607.987 418.028 581.148 438.552 546.624" stroke="#171717" stroke-width="4.11" stroke-linecap="round" stroke-linejoin="round"/>
<path d="M349.574 623.188C332.422 651.519 326.274 683.329 329.531 716.277C330.131 722.291 331.271 728.689 335.477 733.032C341.395 739.132 351.122 739.032 359.534 737.813C379.928 734.738 399.506 727.631 417.122 716.905C434.738 706.179 450.04 692.05 462.134 675.343C472.076 661.389 479.597 645.86 484.382 629.408C491.212 606.26 492.525 581.835 488.218 558.088" stroke="#171717" stroke-width="4.11" stroke-linecap="round" stroke-linejoin="round"/>
<path d="M484.337 628.982C484.351 629.119 484.364 629.271 484.378 629.408C486.406 654.908 490.078 680.754 501.215 703.77C512.421 726.895 532.341 746.992 557.356 752.87C564.233 754.487 571.686 754.952 578.138 752.117C584.262 749.432 588.796 744.103 592.738 738.705C615.939 706.627 626.086 666.932 621.124 627.656C615.818 588.42 595.794 552.668 565.11 527.646" stroke="#171717" stroke-width="4.11" stroke-linecap="round" stroke-linejoin="round"/>
<path d="M608.99 580.978C648.144 600.678 696.39 598.308 733.972 576.046C743.11 570.621 752.48 564.073 759.316 555.839C767.577 545.893 768.125 534.591 761.974 523.357C751.562 504.315 734.493 487.628 717.258 474.737C698.031 460.302 676.118 449.846 652.8 443.981" stroke="#171717" stroke-width="4.11" stroke-linecap="round" stroke-linejoin="round"/>
<path d="M600.2 460.436C618.392 457.583 635.943 451.558 652.053 442.636C667.653 434.043 681.71 422.908 693.645 409.688C718.148 382.185 732.729 347.265 735.059 310.503C735.333 305.818 735.402 300.954 733.634 296.625C730.154 288.025 720.688 283.816 711.893 281.295C663.876 267.495 609.214 280.583 572.143 314.708" stroke="#171717" stroke-width="4.11" stroke-linecap="round" stroke-linejoin="round"/>
<path d="M494.57 394.007C493.981 389.157 493.392 384.312 492.803 379.472" stroke="#171717" stroke-width="4.11" stroke-linecap="round" stroke-linejoin="round"/>
<path d="M545.424 419.2C549.945 416.638 554.466 414.071 558.987 411.5" stroke="#171717" stroke-width="4.11" stroke-linecap="round" stroke-linejoin="round"/>
<path d="M551.794 469.642C556.781 471.586 561.768 473.541 566.754 475.505" stroke="#171717" stroke-width="4.11" stroke-linecap="round" stroke-linejoin="round"/>
<path d="M528.546 510.947C531.574 514.687 534.602 518.423 537.629 522.153" stroke="#171717" stroke-width="4.11" stroke-linecap="round" stroke-linejoin="round"/>
<path d="M483.433 524.537C482.803 529.537 482.163 534.533 481.515 539.524" stroke="#171717" stroke-width="4.11" stroke-linecap="round" stroke-linejoin="round"/>
<path d="M440.019 500.412L428.977 509.687" stroke="#171717" stroke-width="4.11" stroke-linecap="round" stroke-linejoin="round"/>
<path d="M456.6 414.857C452.042 412.228 447.798 409.089 443.95 405.5" stroke="#171717" stroke-width="4.11" stroke-linecap="round" stroke-linejoin="round"/>
<path d="M432.744 448.571L420.661 446.146" stroke="#171717" stroke-width="4.11" stroke-linecap="round" stroke-linejoin="round"/>
<path d="M799.744 522.934C795.897 521.65 792.258 519.808 788.944 517.468C782.167 512.768 776.571 506.562 772.595 499.336C768.618 492.111 766.369 484.063 766.024 475.823C765.679 467.583 767.248 459.374 770.606 451.842C773.965 444.31 779.023 437.657 785.383 432.407" stroke="#171717" stroke-width="4.11" stroke-linecap="round" stroke-linejoin="round"/>
<path d="M799.744 522.934C799.73 522.783 799.717 522.646 799.717 522.496C799.417 515.715 799.525 508.659 802.457 502.536C805.389 496.413 811.882 491.508 818.595 492.508C826.486 493.672 831.459 503.084 829.267 510.756C827.075 518.428 819.294 523.634 811.348 524.373C807.422 524.698 803.471 524.208 799.744 522.934V522.934Z" stroke="#171717" stroke-width="4.11" stroke-linecap="round" stroke-linejoin="round"/>
<path d="M715.765 657.272C703.326 652.847 689.297 665.327 689.64 678.52C689.983 691.713 701.572 702.755 714.45 705.686C727.328 708.617 740.89 704.823 752.604 698.74C765.298 692.047 776.439 682.755 785.303 671.47C794.166 660.184 800.553 647.158 804.046 633.24C812.814 597.306 801.402 559.892 799.746 522.931" stroke="#171717" stroke-width="4.11" stroke-linecap="round" stroke-linejoin="round"/>
<path d="M849.747 608.557C849.418 607.927 849.076 607.283 848.747 606.657" stroke="#171717" stroke-width="4.11" stroke-linecap="round" stroke-linejoin="round"/>
<path d="M860.159 657.026V653.163" stroke="#171717" stroke-width="4.11" stroke-linecap="round" stroke-linejoin="round"/>
<path d="M826.321 687.014V682.178" stroke="#171717" stroke-width="4.11" stroke-linecap="round" stroke-linejoin="round"/>
<path d="M288.35 862.37C294.09 871.165 308.584 871.07 315.612 863.27C322.64 855.47 322.297 842.77 316.475 834.035C306.461 819.02 282.87 816.828 268.581 827.87C254.292 838.912 249.826 859.87 255.744 876.942C261.662 894.014 276.43 907.013 293.171 913.794C309.912 920.575 328.448 921.685 346.449 920.356C380.227 917.957 412.829 906.956 441.155 888.4C456.334 878.331 469.993 866.111 485.172 856.041C500.351 845.971 517.64 837.93 535.861 837.766C554.41 837.602 572.727 845.602 591.071 842.794C605.471 840.588 618.21 831.834 627.937 820.994C637.664 810.154 644.76 797.266 651.774 784.494" stroke="url(#paint4_linear_46_99)" stroke-width="4.11" stroke-linecap="round" stroke-linejoin="round"/>
<path d="M485.652 760.39C484.593 769.23 482.562 777.927 479.597 786.323C476.784 794.319 472.869 801.884 467.966 808.8C457.842 822.9 442.718 833.816 425.62 836.857C408.522 839.898 389.658 834.323 378.452 821.048" stroke="#171717" stroke-width="4.11" stroke-linecap="round" stroke-linejoin="round"/>
<path d="M377.055 822.599C377.192 821.982 377.343 821.367 377.534 820.778C380.959 809.229 393.028 801.708 405.034 799.365C417.634 796.913 430.652 798.765 443.489 798.557C454.709 798.379 466.655 796.213 475.245 789.336C476.514 788.333 477.696 787.224 478.779 786.021" stroke="#171717" stroke-width="4.11" stroke-linecap="round" stroke-linejoin="round"/>
<path d="M407.66 813.489C419.999 817.663 433.385 817.549 445.651 813.166C457.916 808.782 468.342 800.385 475.24 789.336C475.993 788.158 476.678 786.936 477.34 785.706" stroke="#171717" stroke-width="4.11" stroke-linecap="round" stroke-linejoin="round"/>
<path d="M268.335 755.663C267.691 754.704 267.047 753.73 266.403 752.771" stroke="#171717" stroke-width="4.11" stroke-linecap="round" stroke-linejoin="round"/>
<path d="M282.3 709.235C282.232 706.988 282.177 704.728 282.122 702.467" stroke="#171717" stroke-width="4.11" stroke-linecap="round" stroke-linejoin="round"/>
<path d="M326.449 777.884C326.12 776.911 325.791 775.952 325.476 774.984" stroke="#171717" stroke-width="4.11" stroke-linecap="round" stroke-linejoin="round"/>
<path d="M136.887 731.373L133.065 729.359" stroke="#171717" stroke-width="4.11" stroke-linecap="round" stroke-linejoin="round"/>
<path d="M109.912 716.921L108.885 714.044" stroke="#171717" stroke-width="4.11" stroke-linecap="round" stroke-linejoin="round"/>
<path d="M112.542 681.137C112.816 680.638 112.888 680.052 112.743 679.501C112.597 678.95 112.246 678.477 111.761 678.178" stroke="#171717" stroke-width="4.11" stroke-linecap="round" stroke-linejoin="round"/>
<path d="M156.354 603.98C156.148 604.939 155.929 605.88 155.696 606.829C151.996 622.008 145.668 636.529 143.106 651.942C140.544 667.355 142.435 684.657 153.12 696.055C163.805 707.453 184.958 709.193 194.15 696.548" stroke="#171717" stroke-width="4.11" stroke-linecap="round" stroke-linejoin="round"/>
<path d="M156.354 603.98C146.038 607.747 132.873 604.692 127.434 595.185C121.913 585.499 128.585 570.485 139.734 570.279C147.447 570.142 154.091 576.622 156.393 583.992C158.409 590.417 157.765 597.336 156.354 603.98Z" stroke="#171717" stroke-width="4.11" stroke-linecap="round" stroke-linejoin="round"/>
<path d="M174.205 509.864C180.704 520.277 184.563 532.119 185.446 544.362C186.33 556.605 184.211 568.878 179.274 580.116C174.685 590.267 167.259 599.748 156.874 603.789C156.696 603.858 156.532 603.926 156.353 603.981" stroke="#171717" stroke-width="4.11" stroke-linecap="round" stroke-linejoin="round"/>
<path d="M739.561 194.321C744.93 186.512 751.929 179.958 760.074 175.112C768.219 170.267 777.317 167.243 786.743 166.25C788.443 166.086 790.154 165.99 791.867 165.962C809.26 165.745 826.032 172.424 838.514 184.539" stroke="#171717" stroke-width="4.11" stroke-linecap="round" stroke-linejoin="round"/>
<path d="M788.935 164.894C789.95 165.137 790.933 165.495 791.867 165.963C795.397 167.821 798.388 170.557 800.553 173.909C803.402 178.046 805.453 182.663 808.225 186.841C811.774 192.214 816.436 196.764 821.894 200.181C827.353 203.598 833.482 205.804 839.866 206.65C846.25 207.495 852.742 206.96 858.902 205.081C865.062 203.203 870.747 200.023 875.573 195.759C875.792 195.581 875.998 195.389 876.217 195.197" stroke="#171717" stroke-width="4.11" stroke-linecap="round" stroke-linejoin="round"/>
<path d="M874.653 194.7C863.543 182.11 851.309 169.945 836.006 163.04C820.703 156.135 801.73 155.355 787.906 164.876C788.194 164.766 788.495 164.643 788.783 164.534V164.52C789.372 164.301 789.947 164.068 790.537 163.835" stroke="#171717" stroke-width="4.11" stroke-linecap="round" stroke-linejoin="round"/>
<path d="M492.3 110.506C500.624 110.707 508.751 107.961 515.247 102.752C526.837 93.1349 531.44 77.5579 540.687 65.6519C555.14 47.0069 580.457 38.9239 603.925 41.2389C627.393 43.5539 649.147 55.0069 667.82 69.4469C673.56 73.8859 679.22 78.7899 682.62 85.2289C686.02 91.6679 686.73 99.9419 682.688 105.984C678.646 112.026 670.578 114.574 663.413 113.341C656.248 112.108 649.96 107.697 645.028 102.341" stroke="url(#paint5_linear_46_99)" stroke-width="4.11" stroke-linecap="round" stroke-linejoin="round"/>
<path d="M492.3 110.505C499.849 95.7645 497.684 75.7635 484.258 66.0775C478.49 61.9125 470.504 59.9535 464.188 63.2415C454.571 68.2695 453.995 82.4895 459.188 92.0245C465.582 103.779 479.021 110.399 492.3 110.505Z" stroke="url(#paint6_linear_46_99)" stroke-width="4.11" stroke-linecap="round" stroke-linejoin="round"/>
<path d="M387.933 83.8877C397.221 101.862 410.798 118.466 429.233 126.809C447.668 135.152 471.428 133.59 485.84 119.384C488.449 116.787 490.627 113.79 492.293 110.507" stroke="url(#paint7_linear_46_99)" stroke-width="4.11" stroke-linecap="round" stroke-linejoin="round"/>
<path d="M128.818 244.091C128.576 250.807 129.716 257.502 132.17 263.759C134.623 270.016 138.336 275.702 143.079 280.464C146.435 283.875 150.304 286.741 154.546 288.958C170.712 297.358 191.686 295.411 206.046 284.204" stroke="#171717" stroke-width="4.11" stroke-linecap="round" stroke-linejoin="round"/>
<path d="M147.668 230.529C145.709 222.57 141.914 213.788 134.078 211.391C129.187 209.898 123.694 211.405 119.611 214.491C115.528 217.577 112.665 222.026 110.569 226.697C105.254 238.616 104.61 252.932 110.555 264.535C115.788 274.755 131.296 287.318 143.078 280.468C143.806 280.051 144.498 279.575 145.147 279.043C156.779 269.532 150.655 242.722 147.668 230.529Z" stroke="#171717" stroke-width="4.11" stroke-linecap="round" stroke-linejoin="round"/>
<path d="M796.456 389.978C796.292 390.526 796.141 391.088 795.99 391.636C794.99 395.403 794.483 399.936 797.196 402.736C799.47 405.051 803.306 405.202 806.279 403.873C809.252 402.544 811.499 400.051 813.54 397.53C815.198 395.475 820.568 386.789 825.24 377.268C828.254 371.117 830.994 364.623 832.227 359.349C833.748 352.924 833.049 348.321 827.953 348.403C825.98 348.43 823.816 349.503 821.638 351.143C816.555 354.965 811.404 361.87 808.527 365.829C808.253 366.199 808.006 366.555 807.774 366.87C802.705 373.868 798.876 381.684 796.456 389.978V389.978Z" stroke="#171717" stroke-width="4.11" stroke-linecap="round" stroke-linejoin="round"/>
<path d="M832.677 350.592C838.335 347.085 844.001 343.583 849.677 340.084" stroke="#171717" stroke-width="4.11" stroke-linecap="round" stroke-linejoin="round"/>
<path d="M828.294 348.058C828.116 340.976 827.933 333.884 827.746 326.782" stroke="#171717" stroke-width="4.11" stroke-linecap="round" stroke-linejoin="round"/>
<path d="M820.964 349.5C820.8 341.294 819.064 332.773 813.936 326.375C808.808 319.977 799.675 316.306 792.071 319.388C785.671 321.988 781.618 328.937 781.471 335.828C781.504 341.508 783.465 347.008 787.033 351.428C787.81 352.435 788.653 353.392 789.554 354.291C794.445 359.168 800.76 362.401 807.268 364.675" stroke="#171717" stroke-width="4.11" stroke-linecap="round" stroke-linejoin="round"/>
<path d="M786.921 352.853C786.592 352.839 786.25 352.839 785.921 352.839C777.701 352.839 769.29 356.223 764.481 362.867C759.481 369.767 759.412 380.293 765.399 386.376C769.043 390.076 774.372 391.776 779.564 391.952C784.756 392.128 789.907 390.925 794.921 389.527" stroke="#171717" stroke-width="4.11" stroke-linecap="round" stroke-linejoin="round"/>
<path d="M814.265 397.938C815.238 406.363 819.43 414.652 826.526 419.296C833.622 423.94 843.719 424.228 850.295 418.885C855.61 414.585 857.995 407.199 856.912 400.445C856.021 395.366 853.575 390.689 849.912 387.06C848.719 385.831 847.413 384.716 846.012 383.731C840.302 379.894 833.65 377.695 826.778 377.374" stroke="#171717" stroke-width="4.11" stroke-linecap="round" stroke-linejoin="round"/>
<path d="M832.787 359.525C841.519 355.517 851.458 355.026 860.542 358.155C866.46 360.224 872.351 364.649 872.981 370.882C873.502 375.992 870.2 380.924 865.789 383.568C861.378 386.212 856.103 386.911 850.98 386.979" stroke="#171717" stroke-width="4.11" stroke-linecap="round" stroke-linejoin="round"/>
<path d="M137.407 453.011C136.873 452.545 136.338 452.093 135.807 451.641C133.19 449.449 129.848 447.257 126.615 448.326C122.957 449.545 121.779 454.226 122.286 458.053C123.204 464.944 127.519 470.876 132.163 476.041C135.263 479.507 143.177 489.11 150.263 492.618C153.345 494.139 156.277 494.509 158.579 492.718C162.744 489.458 162.209 484.663 159.963 479.868C157.278 474.155 152.141 468.442 149.563 465.387C145.839 460.952 141.775 456.814 137.407 453.011V453.011Z" stroke="#171717" stroke-width="4.11" stroke-linecap="round" stroke-linejoin="round"/>
<path d="M127.845 446.846C126.708 439.969 125.567 433.087 124.42 426.2" stroke="#171717" stroke-width="4.11" stroke-linecap="round" stroke-linejoin="round"/>
<path d="M122.6 450.476C116.979 446.763 110.851 443.88 104.407 441.914" stroke="#171717" stroke-width="4.11" stroke-linecap="round" stroke-linejoin="round"/>
<path d="M118.858 487.657C116.114 489.063 113.722 491.071 111.862 493.53C110.002 495.989 108.722 498.837 108.115 501.86C107.509 504.883 107.594 508.004 108.362 510.99C109.13 513.977 110.563 516.751 112.553 519.106C114.543 521.461 117.039 523.337 119.855 524.593C122.671 525.849 125.734 526.453 128.816 526.36C131.898 526.267 134.919 525.479 137.655 524.056C140.39 522.633 142.768 520.61 144.613 518.139C149.654 511.399 150.079 502.33 149.586 493.918" stroke="#171717" stroke-width="4.11" stroke-linecap="round" stroke-linejoin="round"/>
<path d="M118.858 487.657C119.927 487.257 120.981 486.808 122.023 486.328C120.93 486.674 119.871 487.119 118.858 487.657V487.657Z" stroke="#171717" stroke-width="4.11" stroke-linecap="round" stroke-linejoin="round"/>
<path d="M121.009 457.258C110.24 457.053 99.7108 460.447 91.089 466.903C86.417 470.424 82.089 476.095 83.91 481.644C85.444 486.274 90.61 488.59 95.39 489.544C103.237 491.09 111.359 490.436 118.857 487.653" stroke="#171717" stroke-width="4.11" stroke-linecap="round" stroke-linejoin="round"/>
<path d="M137.7 452.668C137.07 445.668 137.673 438.119 141.865 432.475C146.057 426.831 154.765 424.175 160.387 428.406C164.332 431.393 165.687 436.968 164.62 441.806C163.553 446.644 160.387 450.766 156.756 454.122C166.056 445.505 181.95 445.313 191.471 453.697C195.745 457.478 198.8 463.41 197.129 468.862C195.17 475.219 187.786 478.233 181.155 478.657C174.524 479.081 167.729 477.767 161.263 479.315C161.496 479.247 161.729 479.164 161.975 479.096" stroke="#171717" stroke-width="4.11" stroke-linecap="round" stroke-linejoin="round"/>
<path d="M243.155 232.159C244.555 228.871 245.95 225.569 247.361 222.282C248.841 218.802 250.321 215.318 251.8 211.829" stroke="#171717" stroke-width="4.11" stroke-linecap="round" stroke-linejoin="round"/>
<path d="M256.608 226.953C253.526 225.405 250.444 223.847 247.361 222.281C244.047 220.61 240.74 218.939 237.442 217.267" stroke="#171717" stroke-width="4.11" stroke-linecap="round" stroke-linejoin="round"/>
<path d="M287.953 154.167L289.186 144.303C289.515 141.577 289.857 138.837 290.2 136.111" stroke="url(#paint8_linear_46_99)" stroke-width="4.11" stroke-linecap="round" stroke-linejoin="round"/>
<path d="M278.335 144.427L289.185 144.304C293.199 144.249 297.208 144.203 301.213 144.167" stroke="url(#paint9_linear_46_99)" stroke-width="4.11" stroke-linecap="round" stroke-linejoin="round"/>
<path d="M348.149 197.609L352.3 190.293C353.752 187.717 355.218 185.128 356.684 182.553" stroke="#171717" stroke-width="4.11" stroke-linecap="round" stroke-linejoin="round"/>
<path d="M345.327 186.512C347.656 187.772 349.971 189.019 352.3 190.293C355 191.745 357.711 193.211 360.41 194.677" stroke="#171717" stroke-width="4.11" stroke-linecap="round" stroke-linejoin="round"/>
<path d="M785.277 276.984C784.907 274.244 784.537 271.513 784.167 268.792C783.742 265.559 783.309 262.326 782.867 259.092" stroke="#171717" stroke-width="4.11" stroke-linecap="round" stroke-linejoin="round"/>
<path d="M774.084 270.573C777.468 270.094 780.824 269.491 784.167 268.792C786.332 268.325 788.492 267.814 790.647 267.258" stroke="#171717" stroke-width="4.11" stroke-linecap="round" stroke-linejoin="round"/>
<path d="M831.1 280.819C833.826 277.517 836.552 274.225 839.279 270.942C841.731 267.969 844.197 264.996 846.649 262.024" stroke="url(#paint10_linear_46_99)" stroke-width="4.11" stroke-linecap="round" stroke-linejoin="round"/>
<path d="M831.308 264.244L839.281 270.944C842.309 273.477 845.336 276.021 848.364 278.575" stroke="url(#paint11_linear_46_99)" stroke-width="4.11" stroke-linecap="round" stroke-linejoin="round"/>
<path d="M636.4 223.158C646.209 219.815 655.936 216.033 664.758 210.581C673.58 205.129 681.472 197.91 686.499 188.854C688.299 185.648 689.732 181.921 688.869 178.345C687.54 172.81 681.005 169.892 675.361 170.591C669.744 171.291 664.853 174.633 660.223 177.88C660.196 177.894 660.182 177.907 660.155 177.921" stroke="#171717" stroke-width="4.11" stroke-linecap="round" stroke-linejoin="round"/>
<path d="M635.06 223.926C635.033 223.775 634.992 223.611 634.96 223.46C631.06 204.404 627.179 185.26 626.137 165.853C625.904 161.771 625.822 157.578 627.164 153.715C628.506 149.852 631.521 146.331 635.521 145.495C640.96 144.372 646.111 148.358 649.604 152.674C655.451 159.906 659.131 168.645 660.221 177.881V177.922" stroke="#171717" stroke-width="4.11" stroke-linecap="round" stroke-linejoin="round"/>
<path d="M592.838 131.083C599.928 123.206 604.349 113.291 605.469 102.752C605.921 98.2998 605.569 93.2718 602.345 90.1888C601.167 89.0563 599.693 88.2803 598.093 87.9505C596.493 87.6208 594.832 87.7508 593.303 88.3256C591.774 88.9003 590.438 89.8963 589.451 91.1983C588.465 92.5003 587.867 94.0551 587.727 95.6828" stroke="#171717" stroke-width="4.11" stroke-linecap="round" stroke-linejoin="round"/>
<path d="M587.454 95.6698C583.648 93.3394 579.481 91.6588 575.124 90.6968C572.898 90.0982 570.567 90.0093 568.302 90.4368C567.174 90.6666 566.121 91.174 565.238 91.9131C564.356 92.6522 563.671 93.5996 563.247 94.6698C562.041 98.2998 564.891 101.903 567.508 104.67C575.728 113.314 583.943 121.967 592.154 130.631" stroke="#171717" stroke-width="4.11" stroke-linecap="round" stroke-linejoin="round"/>
<path d="M410 388.2C400.955 359.703 386.75 333.111 368.092 309.749" stroke="url(#paint12_linear_46_99)" stroke-width="4.11" stroke-linecap="round" stroke-linejoin="round"/>
<path d="M501.948 344.749L513.648 253.376" stroke="url(#paint13_linear_46_99)" stroke-width="4.11" stroke-linecap="round" stroke-linejoin="round"/>
<path d="M592.806 396.929L662.625 337.683" stroke="url(#paint14_linear_46_99)" stroke-width="4.11" stroke-linecap="round" stroke-linejoin="round"/>
<path d="M591.126 504.853C616.45 513.246 641.217 523.237 665.276 534.766" stroke="url(#paint15_linear_46_99)" stroke-width="4.11" stroke-linecap="round" stroke-linejoin="round"/>
<path d="M530.169 563.771C538.743 597.494 545.168 631.727 549.405 666.265" stroke="url(#paint16_linear_46_99)" stroke-width="4.11" stroke-linecap="round" stroke-linejoin="round"/>
<path d="M460.694 566.56C439.494 601.803 420.195 638.155 402.879 675.46" stroke="url(#paint17_linear_46_99)" stroke-width="4.11" stroke-linecap="round" stroke-linejoin="round"/>
<path d="M389.984 527.885C356.971 549.046 322.286 567.478 286.275 583" stroke="url(#paint18_linear_46_99)" stroke-width="4.11" stroke-linecap="round" stroke-linejoin="round"/>
<path d="M376.807 465.762C342.196 458.552 309.219 444.999 279.54 425.788" stroke="url(#paint19_linear_46_99)" stroke-width="4.11" stroke-linecap="round" stroke-linejoin="round"/>
<g opacity="0.1">
<path d="M505.755 350.549C493.967 351.584 482.346 354.039 471.146 357.86C460.027 361.56 449.67 365.638 440.057 372.491C420.289 386.581 405.701 406.779 398.539 429.975C384.239 475.551 403.793 528.591 448.261 548.875C460.091 554.452 472.919 557.602 485.987 558.141C492.67 558.41 499.333 557.223 505.511 554.661C511.174 552.371 517.552 552.072 522.751 548.78C524.697 547.548 524.707 543.821 522.051 543.38C517.42 542.617 512.889 543.807 508.318 543.155C503.242 542.432 498.481 540.092 493.412 539.29C484.036 537.807 474.64 536.153 465.603 533.148C447.717 527.311 432.768 514.804 423.867 498.229C414.939 481.35 412.269 461.858 416.327 443.2C420.664 423.386 431.544 406.071 445.607 391.668C449.621 387.594 453.905 383.796 458.429 380.299C463.045 376.699 467.576 372.716 472.659 369.813C478.004 366.761 483.359 363.584 489.201 361.593C494.901 359.65 500.753 358.078 506.57 356.528C509.803 355.666 509.264 350.28 505.76 350.543L505.755 350.549Z" fill="#171717"/>
</g>
</g>
</g>
<defs>
<linearGradient id="paint0_linear_46_99" x1="493.166" y1="352.396" x2="493.166" y2="556.075" gradientUnits="userSpaceOnUse">
<stop stop-color="#28ED9B"/>
<stop offset="1" stop-color="#00AE84"/>
<stop offset="1" stop-color="#0A7D60"/>
</linearGradient>
<linearGradient id="paint1_linear_46_99" x1="813.811" y1="348.62" x2="813.811" y2="404.397" gradientUnits="userSpaceOnUse">
<stop stop-color="#28ED9B"/>
<stop offset="1" stop-color="#00AE84"/>
<stop offset="1" stop-color="#0A7D60"/>
</linearGradient>
<linearGradient id="paint2_linear_46_99" x1="657.151" y1="145.609" x2="657.151" y2="223.032" gradientUnits="userSpaceOnUse">
<stop stop-color="#28ED9B"/>
<stop offset="1" stop-color="#00AE84"/>
<stop offset="1" stop-color="#0A7D60"/>
</linearGradient>
<linearGradient id="paint3_linear_46_99" x1="128.851" y1="211.091" x2="128.851" y2="282.027" gradientUnits="userSpaceOnUse">
<stop stop-color="#28ED9B"/>
<stop offset="1" stop-color="#00AE84"/>
<stop offset="1" stop-color="#0A7D60"/>
</linearGradient>
<linearGradient id="paint4_linear_46_99" x1="449.853" y1="785.03" x2="449.853" y2="920.102" gradientUnits="userSpaceOnUse">
<stop stop-color="#28ED9B"/>
<stop offset="1" stop-color="#00AE84"/>
<stop offset="1" stop-color="#0A7D60"/>
</linearGradient>
<linearGradient id="paint5_linear_46_99" x1="587.599" y1="41.1385" x2="587.599" y2="113.246" gradientUnits="userSpaceOnUse">
<stop stop-color="#28ED9B"/>
<stop offset="1" stop-color="#00AE84"/>
<stop offset="1" stop-color="#0A7D60"/>
</linearGradient>
<linearGradient id="paint6_linear_46_99" x1="476.005" y1="61.7791" x2="476.005" y2="110.238" gradientUnits="userSpaceOnUse">
<stop stop-color="#28ED9B"/>
<stop offset="1" stop-color="#00AE84"/>
<stop offset="1" stop-color="#0A7D60"/>
</linearGradient>
<linearGradient id="paint7_linear_46_99" x1="439.423" y1="84.0763" x2="439.423" y2="131.628" gradientUnits="userSpaceOnUse">
<stop stop-color="#28ED9B"/>
<stop offset="1" stop-color="#00AE84"/>
<stop offset="1" stop-color="#0A7D60"/>
</linearGradient>
<linearGradient id="paint8_linear_46_99" x1="289.062" y1="136.182" x2="289.062" y2="154.069" gradientUnits="userSpaceOnUse">
<stop stop-color="#28ED9B"/>
<stop offset="1" stop-color="#00AE84"/>
<stop offset="1" stop-color="#0A7D60"/>
</linearGradient>
<linearGradient id="paint9_linear_46_99" x1="289.623" y1="144.168" x2="289.623" y2="144.426" gradientUnits="userSpaceOnUse">
<stop stop-color="#28ED9B"/>
<stop offset="1" stop-color="#00AE84"/>
<stop offset="1" stop-color="#0A7D60"/>
</linearGradient>
<linearGradient id="paint10_linear_46_99" x1="838.771" y1="262.098" x2="838.771" y2="280.717" gradientUnits="userSpaceOnUse">
<stop stop-color="#28ED9B"/>
<stop offset="1" stop-color="#00AE84"/>
<stop offset="1" stop-color="#0A7D60"/>
</linearGradient>
<linearGradient id="paint11_linear_46_99" x1="839.723" y1="264.3" x2="839.723" y2="278.497" gradientUnits="userSpaceOnUse">
<stop stop-color="#28ED9B"/>
<stop offset="1" stop-color="#00AE84"/>
<stop offset="1" stop-color="#0A7D60"/>
</linearGradient>
<linearGradient id="paint12_linear_46_99" x1="388.769" y1="310.057" x2="388.769" y2="387.772" gradientUnits="userSpaceOnUse">
<stop stop-color="#28ED9B"/>
<stop offset="1" stop-color="#00AE84"/>
<stop offset="1" stop-color="#0A7D60"/>
</linearGradient>
<linearGradient id="paint13_linear_46_99" x1="507.721" y1="253.735" x2="507.721" y2="344.25" gradientUnits="userSpaceOnUse">
<stop stop-color="#28ED9B"/>
<stop offset="1" stop-color="#00AE84"/>
<stop offset="1" stop-color="#0A7D60"/>
</linearGradient>
<linearGradient id="paint14_linear_46_99" x1="627.254" y1="337.915" x2="627.254" y2="396.605" gradientUnits="userSpaceOnUse">
<stop stop-color="#28ED9B"/>
<stop offset="1" stop-color="#00AE84"/>
<stop offset="1" stop-color="#0A7D60"/>
</linearGradient>
<linearGradient id="paint15_linear_46_99" x1="627.711" y1="504.97" x2="627.711" y2="534.602" gradientUnits="userSpaceOnUse">
<stop stop-color="#28ED9B"/>
<stop offset="1" stop-color="#00AE84"/>
<stop offset="1" stop-color="#0A7D60"/>
</linearGradient>
<linearGradient id="paint16_linear_46_99" x1="539.66" y1="564.173" x2="539.66" y2="665.705" gradientUnits="userSpaceOnUse">
<stop stop-color="#28ED9B"/>
<stop offset="1" stop-color="#00AE84"/>
<stop offset="1" stop-color="#0A7D60"/>
</linearGradient>
<linearGradient id="paint17_linear_46_99" x1="431.404" y1="566.987" x2="431.404" y2="674.865" gradientUnits="userSpaceOnUse">
<stop stop-color="#28ED9B"/>
<stop offset="1" stop-color="#00AE84"/>
<stop offset="1" stop-color="#0A7D60"/>
</linearGradient>
<linearGradient id="paint18_linear_46_99" x1="337.444" y1="528.101" x2="337.444" y2="582.699" gradientUnits="userSpaceOnUse">
<stop stop-color="#28ED9B"/>
<stop offset="1" stop-color="#00AE84"/>
<stop offset="1" stop-color="#0A7D60"/>
</linearGradient>
<linearGradient id="paint19_linear_46_99" x1="327.531" y1="425.945" x2="327.531" y2="465.544" gradientUnits="userSpaceOnUse">
<stop stop-color="#28ED9B"/>
<stop offset="1" stop-color="#00AE84"/>
<stop offset="1" stop-color="#0A7D60"/>
</linearGradient>
<clipPath id="clip0_46_99">
<rect width="960" height="960" fill="white"/>
</clipPath>
<clipPath id="clip1_46_99">
<rect width="798" height="885" fill="white" transform="translate(81 38)"/>
</clipPath>
</defs>
</svg>
